<mxfile host="app.diagrams.net" modified="2023-11-07T21:09:30.919Z" agent="Mozilla/5.0 (Windows NT 10.0; Win64; x64) AppleWebKit/537.36 (KHTML, like Gecko) Chrome/119.0.0.0 Safari/537.36" etag="cy2v7KJAM-4dXJBcdjxA" version="22.0.8" type="github">
  <diagram name="Page-1" id="GWQWt9olF0WddI4Uw1R9">
    <mxGraphModel dx="880" dy="446" grid="1" gridSize="10" guides="1" tooltips="1" connect="1" arrows="1" fold="1" page="1" pageScale="1" pageWidth="850" pageHeight="1100" math="0" shadow="0">
      <root>
        <mxCell id="0" />
        <mxCell id="1" parent="0" />
        <mxCell id="A0zICm-oL_uYT9Lr-Q25-4" style="edgeStyle=orthogonalEdgeStyle;rounded=0;orthogonalLoop=1;jettySize=auto;html=1;exitX=0.5;exitY=0;exitDx=0;exitDy=0;entryX=0;entryY=1;entryDx=0;entryDy=0;" edge="1" parent="1" source="A0zICm-oL_uYT9Lr-Q25-1" target="A0zICm-oL_uYT9Lr-Q25-2">
          <mxGeometry relative="1" as="geometry" />
        </mxCell>
        <mxCell id="A0zICm-oL_uYT9Lr-Q25-1" value="homepage" style="rounded=1;whiteSpace=wrap;html=1;" vertex="1" parent="1">
          <mxGeometry x="170" y="200" width="120" height="60" as="geometry" />
        </mxCell>
        <mxCell id="A0zICm-oL_uYT9Lr-Q25-5" style="edgeStyle=orthogonalEdgeStyle;rounded=0;orthogonalLoop=1;jettySize=auto;html=1;exitX=1;exitY=0.5;exitDx=0;exitDy=0;" edge="1" parent="1" source="A0zICm-oL_uYT9Lr-Q25-2" target="A0zICm-oL_uYT9Lr-Q25-3">
          <mxGeometry relative="1" as="geometry" />
        </mxCell>
        <mxCell id="A0zICm-oL_uYT9Lr-Q25-2" value="Products&lt;br&gt;" style="ellipse;whiteSpace=wrap;html=1;aspect=fixed;" vertex="1" parent="1">
          <mxGeometry x="290" y="100" width="80" height="80" as="geometry" />
        </mxCell>
        <mxCell id="A0zICm-oL_uYT9Lr-Q25-6" style="edgeStyle=orthogonalEdgeStyle;rounded=0;orthogonalLoop=1;jettySize=auto;html=1;exitX=0;exitY=0.5;exitDx=0;exitDy=0;entryX=1;entryY=0.5;entryDx=0;entryDy=0;" edge="1" parent="1" source="A0zICm-oL_uYT9Lr-Q25-3" target="A0zICm-oL_uYT9Lr-Q25-2">
          <mxGeometry relative="1" as="geometry" />
        </mxCell>
        <mxCell id="A0zICm-oL_uYT9Lr-Q25-3" value="single product" style="ellipse;whiteSpace=wrap;html=1;aspect=fixed;" vertex="1" parent="1">
          <mxGeometry x="420" y="100" width="80" height="80" as="geometry" />
        </mxCell>
        <mxCell id="A0zICm-oL_uYT9Lr-Q25-10" style="edgeStyle=orthogonalEdgeStyle;rounded=0;orthogonalLoop=1;jettySize=auto;html=1;exitX=0;exitY=0.5;exitDx=0;exitDy=0;entryX=0.5;entryY=0;entryDx=0;entryDy=0;" edge="1" parent="1" source="A0zICm-oL_uYT9Lr-Q25-8" target="A0zICm-oL_uYT9Lr-Q25-2">
          <mxGeometry relative="1" as="geometry" />
        </mxCell>
        <mxCell id="A0zICm-oL_uYT9Lr-Q25-12" style="edgeStyle=orthogonalEdgeStyle;rounded=0;orthogonalLoop=1;jettySize=auto;html=1;exitX=1;exitY=1;exitDx=0;exitDy=0;entryX=0.5;entryY=0;entryDx=0;entryDy=0;" edge="1" parent="1" source="A0zICm-oL_uYT9Lr-Q25-8" target="A0zICm-oL_uYT9Lr-Q25-3">
          <mxGeometry relative="1" as="geometry" />
        </mxCell>
        <mxCell id="A0zICm-oL_uYT9Lr-Q25-8" value="product database&lt;br&gt;" style="ellipse;whiteSpace=wrap;html=1;" vertex="1" parent="1">
          <mxGeometry x="350" y="10" width="120" height="80" as="geometry" />
        </mxCell>
        <mxCell id="A0zICm-oL_uYT9Lr-Q25-13" value="cart database&lt;br&gt;" style="ellipse;whiteSpace=wrap;html=1;" vertex="1" parent="1">
          <mxGeometry x="540" y="270" width="120" height="80" as="geometry" />
        </mxCell>
        <mxCell id="A0zICm-oL_uYT9Lr-Q25-14" value="Items database&lt;br&gt;" style="ellipse;whiteSpace=wrap;html=1;" vertex="1" parent="1">
          <mxGeometry x="560" y="120" width="120" height="80" as="geometry" />
        </mxCell>
      </root>
    </mxGraphModel>
  </diagram>
</mxfile>
